<svg xmlns="http://www.w3.org/2000/svg" id="Group_63950" width="360" height="640" viewBox="0 0 360 640">
    <defs>
        <clipPath id="clip-path">
            <path id="Rectangle_17741" d="M0 0H360V640H0z" class="cls-1"/>
        </clipPath>
        <style>
            .cls-1{fill:#00bbb3}.cls-4{fill:#6edad5}
        </style>
    </defs>
    <path id="Rectangle_17740" d="M0 0H360V640H0z" class="cls-1"/>
    <g id="Mask_Group_3" clip-path="url(#clip-path)">
        <g id="Group_63759" opacity="0.2" transform="translate(190.783 754.931)">
            <path id="Path_57095" d="M544.792 180.258c18.028 0 21.759-18.652 10.567-26.427-9.015-6.523-29.842-5.591-29.842-5.591v16.16c0 6.222 4.352 15.856 19.275 15.856" class="cls-4" transform="translate(-394.144 -1048)"/>
            <path id="Path_57096" d="M512.235 248.313c13.454 0 16.239-13.947 7.887-19.764-6.728-4.877-22.272-4.181-22.272-4.181v12.09c0 4.651 3.247 11.855 14.385 11.855" class="cls-4" transform="translate(-401.787 -1026.967)"/>
            <path id="Path_57097" d="M512.235 276.247c13.454 0 16.239-13.949 7.887-19.764-6.728-4.879-22.272-4.181-22.272-4.181v12.085c0 4.656 3.247 11.86 14.385 11.86" class="cls-4" transform="translate(-401.787 -1019.25)"/>
            <path id="Path_57098" d="M512.235 304.181c13.454 0 16.239-13.949 7.887-19.761-6.728-4.882-22.272-4.186-22.272-4.186v12.087c0 4.656 3.247 11.86 14.385 11.86" class="cls-4" transform="translate(-401.787 -1011.534)"/>
            <path id="Path_57099" d="M512.235 332.112c13.454 0 16.239-13.949 7.887-19.761-6.728-4.882-22.272-4.184-22.272-4.184v12.09c0 4.651 3.247 11.855 14.385 11.855" class="cls-4" transform="translate(-401.787 -1003.818)"/>
            <path id="Path_57100" d="M512.235 360.045c13.454 0 16.239-13.943 7.887-19.76-6.728-4.882-22.272-4.184-22.272-4.184v12.09c0 4.649 3.247 11.854 14.385 11.854" class="cls-4" transform="translate(-401.787 -996.101)"/>
            <path id="Path_57101" d="M573.555 248.313c13.455 0 16.239-13.947 7.889-19.764-6.728-4.877-22.272-4.181-22.272-4.181v12.09c0 4.651 3.246 11.855 14.383 11.855" class="cls-4" transform="translate(-384.847 -1026.967)"/>
            <path id="Path_57102" d="M573.555 276.247c13.455 0 16.239-13.949 7.889-19.764-6.728-4.879-22.272-4.181-22.272-4.181v12.085c0 4.656 3.246 11.86 14.383 11.86" class="cls-4" transform="translate(-384.847 -1019.25)"/>
            <path id="Path_57103" d="M573.555 304.181c13.455 0 16.239-13.949 7.889-19.761-6.728-4.882-22.272-4.186-22.272-4.186v12.087c0 4.656 3.246 11.86 14.383 11.86" class="cls-4" transform="translate(-384.847 -1011.534)"/>
            <path id="Path_57104" d="M573.555 332.112c13.455 0 16.239-13.949 7.889-19.761-6.728-4.882-22.272-4.184-22.272-4.184v12.09c0 4.651 3.246 11.855 14.383 11.855" class="cls-4" transform="translate(-384.847 -1003.818)"/>
            <path id="Path_57105" d="M573.555 360.045c13.455 0 16.239-13.943 7.889-19.76-6.728-4.882-22.272-4.184-22.272-4.184v12.09c0 4.649 3.246 11.854 14.383 11.854" class="cls-4" transform="translate(-384.847 -996.101)"/>
            <path id="Path_57106" d="M543.5 229.774c13.453 0 16.239-13.947 7.886-19.761-6.73-4.879-22.272-4.184-22.272-4.184v12.09c0 4.651 3.248 11.855 14.386 11.855" class="cls-4" transform="translate(-393.15 -1032.088)"/>
            <path id="Path_57107" d="M543.5 257.711c13.453 0 16.239-13.949 7.886-19.766-6.73-4.877-22.272-4.181-22.272-4.181v12.087c0 4.656 3.248 11.86 14.386 11.86" class="cls-4" transform="translate(-393.15 -1024.371)"/>
            <path id="Path_57108" d="M543.5 285.641c13.453 0 16.239-13.949 7.886-19.759-6.73-4.882-22.272-4.186-22.272-4.186v12.085c0 4.658 3.248 11.86 14.386 11.86" class="cls-4" transform="translate(-393.15 -1016.655)"/>
            <path id="Path_57109" d="M543.5 313.576c13.453 0 16.239-13.949 7.886-19.764-6.73-4.879-22.272-4.184-22.272-4.184v12.092c0 4.651 3.248 11.855 14.386 11.855" class="cls-4" transform="translate(-393.15 -1008.939)"/>
            <path id="Path_57110" d="M543.5 341.508c13.453 0 16.239-13.947 7.886-19.761-6.73-4.879-22.272-4.184-22.272-4.184v12.085c0 4.656 3.248 11.86 14.386 11.86" class="cls-4" transform="translate(-393.15 -1001.222)"/>
        </g>
    </g>
</svg>
