<svg xmlns="http://www.w3.org/2000/svg" width="70" height="87.349" viewBox="0 0 70 87.349">
    <g>
        <path fill="#fff" d="M701.747 220.292H665.81v87.349h23.958v-25.33h11.979c21.091 0 34.063-14.35 34.063-31.068s-12.973-30.95-34.063-30.95m-.259 39.011c-8.3 0-10.717-5.359-10.717-8.815V241.5s11.58-.517 16.593 3.111c6.222 4.324 4.148 14.7-5.876 14.7" transform="translate(-307.81 480.708) translate(-358 -701)"/>
        <path fill="#6edad5" d="M696.576 282.683c-8.017 0-10.352-5.171-10.352-8.512v-8.68s11.186-.5 16.028 3c6.01 4.176 4.007 14.19-5.676 14.19" transform="translate(-307.81 480.708) translate(-346.722 -676.042)"/>
    </g>
</svg>
